PathFileType	4	(X/Y/Z)	Kaydara	
DataRate	CameraRate	NumFrames	NumMarkers	Units	OrigDataRate	OrigDataStartFrame	OrigNumFrames	
60.00	60.00	4	74	mm	60.00	1851	201	
Frame#	Time	Z_lasi			Z_rasi			Z_rpsi			Z_lpsi			Z_fneck			Z_bneck			Z_fhead			Z_rhead			Z_lhead			Z_rshld			Z_relbtop			Z_relbext			Z_relblow			Z_rwrext			Z_rwrtop			Z_rwrlow			Z_lshld			Z_lelbext			Z_lelblow			Z_lelbtop			Z_lwrext			Z_lwrtop			Z_lwrlow			Z_rtopleg			Z_ltopleg			Z_rkneefr			Z_rkneebk			Z_rkneeis			Z_lkneefr			Z_lknssbk			Z_lkneeis			Z_rankfr			Z_rankis			Z_rankbk			Z_lankfr			Z_lankbk			Z_lankis			A_lasi			A_rasi			A_rpsi			A_lpsi			A_fneck			A_bneck			A_fhead			A_rhead			A_lhead			A_rshld			A_relbtop			A_relbext			A_relblow			A_rwrext			A_rwrtop			A_rwrlow			A_lshld			A_lelbext			A_lelblow			A_lelbtop			A_lwrext			A_lwrtop			A_lwrlow			A_rtopleg			A_ltopleg			A_rkneefr			A_rkneebk			A_rkneeis			A_lkneefr			A_lknssbk			A_lkneeis			A_rankfr			A_rankis			A_rankbk			A_lankfr			A_lankbk			A_lankis			
		X1	Y1	Z1	X2	Y2	Z2	X3	Y3	Z3	X4	Y4	Z4	X5	Y5	Z5	X6	Y6	Z6	X7	Y7	Z7	X8	Y8	Z8	X9	Y9	Z9	X10	Y10	Z10	X11	Y11	Z11	X12	Y12	Z12	X13	Y13	Z13	X14	Y14	Z14	X15	Y15	Z15	X16	Y16	Z16	X17	Y17	Z17	X18	Y18	Z18	X19	Y19	Z19	X20	Y20	Z20	X21	Y21	Z21	X22	Y22	Z22	X23	Y23	Z23	X24	Y24	Z24	X25	Y25	Z25	X26	Y26	Z26	X27	Y27	Z27	X28	Y28	Z28	X29	Y29	Z29	X30	Y30	Z30	X31	Y31	Z31	X32	Y32	Z32	X33	Y33	Z33	X34	Y34	Z34	X35	Y35	Z35	X36	Y36	Z36	X37	Y37	Z37	X38	Y38	Z38	X39	Y39	Z39	X40	Y40	Z40	X41	Y41	Z41	X42	Y42	Z42	X43	Y43	Z43	X44	Y44	Z44	X45	Y45	Z45	X46	Y46	Z46	X47	Y47	Z47	X48	Y48	Z48	X49	Y49	Z49	X50	Y50	Z50	X51	Y51	Z51	X52	Y52	Z52	X53	Y53	Z53	X54	Y54	Z54	X55	Y55	Z55	X56	Y56	Z56	X57	Y57	Z57	X58	Y58	Z58	X59	Y59	Z59	X60	Y60	Z60	X61	Y61	Z61	X62	Y62	Z62	X63	Y63	Z63	X64	Y64	Z64	X65	Y65	Z65	X66	Y66	Z66	X67	Y67	Z67	X68	Y68	Z68	X69	Y69	Z69	X70	Y70	Z70	X71	Y71	Z71	X72	Y72	Z72	X73	Y73	Z73	X74	Y74	Z74	

51	30.833	-248.37006	1077.20619	705.46249	-316.02312	1078.31848	507.80018	-151.12934	1104.84360	410.23472	-64.11892	1097.82852	642.49901	-256.82528	1431.05438	603.43555	-162.85591	1509.63882	573.40424	-359.70474	1608.65479	667.67036	-276.37877	1643.68286	525.37064	-191.73788	1635.64072	647.50809	-240.85030	1429.82925	371.66588	-204.64876	1111.03012	283.67823	-175.06062	1093.82202	334.78657	-267.79871	1120.53802	326.90033	-300.90137	883.20770	297.12759	-332.38579	897.37221	327.85583	-306.75186	892.74467	362.41207	-131.82574	1437.71515	752.84645	-87.22657	1119.16672	760.05302	-140.55185	1140.58998	829.51996	-71.79610	1140.37949	827.33231	-203.28669	883.30589	832.81212	-186.68665	877.98309	876.64413	-141.85353	874.04648	862.74330	-200.98421	915.62965	378.56216	-160.42532	895.65849	743.60992	-241.13218	410.62988	412.80167	-172.99376	448.33206	366.76373	-180.05524	423.75923	489.30363	-194.05827	447.11319	718.69392	-86.65386	476.80191	711.45370	-176.99669	441.35265	627.47448	-176.14557	173.92210	380.80544	-155.02975	168.27606	444.44599	-98.93458	175.08404	378.57349	-129.59903	167.30270	737.41066	-68.83465	167.42395	685.16518	-145.93768	172.49994	665.22972	-983.32878	1033.98834	487.12460	-982.19185	1040.45937	646.94572	-1143.02101	1039.67133	656.44920	-1108.43422	1042.94319	475.98301	-1050.88982	1381.94046	578.97015	-1188.55553	1414.45724	561.10516	-993.83858	1591.27350	597.60921	-1146.61690	1558.11401	670.14610	-1135.19127	1565.68039	507.13810	-1146.48186	1348.80508	748.92815	-1122.96448	1055.47691	779.32648	-1179.97467	1046.89583	749.43115	-1111.19225	1045.40977	724.25644	-1095.74295	809.01794	801.69289	-1052.35573	821.82884	800.63217	-1049.55406	821.09322	761.35780	-1073.49846	1357.29202	397.33044	-1104.07089	1046.53503	374.48147	-1037.11311	1054.06242	401.02760	-1060.13481	1053.06221	351.64276	-1017.07741	827.63962	388.95756	-1016.26366	831.10352	346.08421	-973.04138	837.27409	359.45564	-1094.90128	877.76703	740.46471	-1041.74622	891.72318	410.04166	-1040.93307	452.94777	657.82280	-1152.15286	486.84204	693.08556	-1123.10066	485.18105	576.54308	-1019.11568	465.01698	517.04487	-1100.35873	479.81670	419.92935	-1125.11612	477.76447	543.45013	-1107.86148	166.99366	677.27692	-1134.73328	162.57401	608.87394	-1188.44276	153.03817	673.77350	-1068.82027	165.95936	459.81304	-1129.41704	167.95677	423.58524	-1128.53447	172.01733	512.83424 
52	30.850	-248.09570	1077.29424	711.10245	-314.94480	1078.13950	513.10612	-149.86274	1104.60632	416.39034	-63.51423	1098.10287	648.80531	-256.07035	1430.88974	609.46426	-162.27327	1509.53522	579.94381	-359.12697	1608.61496	673.99826	-275.38935	1643.67157	532.01946	-191.21313	1635.42496	654.18465	-239.82204	1430.00229	377.92721	-202.60994	1111.07307	290.16460	-173.60317	1094.03633	341.79646	-265.67755	1120.49927	333.79051	-298.32518	883.12546	304.77839	-329.68212	897.24030	335.65029	-303.88992	892.88559	370.18150	-131.83054	1437.34573	759.31419	-88.74098	1118.61755	767.16293	-141.82370	1140.69305	836.57471	-73.13322	1139.88228	834.37149	-207.16841	884.09218	840.25780	-190.51394	878.74924	884.15741	-145.83741	874.21120	870.13557	-198.92002	915.48729	384.51771	-160.41805	895.73242	749.56161	-241.32010	410.70679	415.45853	-172.98866	448.52238	369.84650	-181.30335	423.33458	492.50099	-193.78620	446.94420	722.05177	-86.37240	476.72623	714.88152	-176.74767	441.75453	630.67566	-176.33465	174.07043	381.99306	-155.12938	168.12881	445.44441	-99.10321	175.37724	379.81876	-129.21661	166.88887	738.30711	-68.64088	167.43860	685.99548	-145.76643	172.67908	666.18179	-982.94464	1034.01901	486.99680	-982.00592	1040.42557	646.89690	-1142.69279	1039.52957	656.27632	-1107.55463	1042.99385	475.57224	-1051.12488	1381.72806	578.78780	-1188.56110	1415.02838	560.75790	-993.10211	1590.29205	597.73632	-1146.18668	1558.27515	669.92981	-1134.35768	1566.04462	507.01439	-1146.84761	1348.62625	748.60397	-1123.03490	1055.33813	779.14146	-1179.83269	1046.67198	749.06754	-1111.40091	1045.13901	723.85109	-1095.20889	808.97797	801.57005	-1051.92245	821.87859	800.51186	-1048.99513	821.10260	761.23489	-1073.57269	1357.20993	397.04185	-1103.76961	1046.41731	374.33578	-1036.80130	1053.99498	400.92319	-1059.86954	1052.93060	351.53622	-1016.55518	827.62207	388.89832	-1015.75691	831.07300	345.99083	-972.56821	837.24297	359.54525	-1094.66080	877.72324	740.38559	-1041.74622	891.72318	410.04166	-1040.68634	452.93682	657.76268	-1151.91383	486.91418	692.95593	-1122.76634	485.21637	576.45226	-1018.82484	464.98730	517.08271	-1100.00191	479.81113	419.87267	-1124.78104	477.83024	543.41904	-1107.73361	167.01984	677.22580	-1134.65599	162.58007	608.86166	-1188.34343	153.11376	673.73314	-1068.65471	165.82115	459.69929	-1129.29092	167.98140	423.57159	-1128.44276	172.02997	512.85980 
53	30.867	-247.68124	1077.37587	716.62148	-313.77344	1078.07053	518.28938	-148.30867	1104.33434	422.25864	-62.77174	1098.21182	654.97086	-255.54962	1430.61966	615.58830	-161.76376	1509.43146	586.44836	-358.49674	1608.49579	680.21782	-274.61725	1643.67096	538.44044	-190.77957	1635.17609	660.90012	-238.78456	1430.27496	384.05052	-200.68832	1111.22482	296.83201	-170.77112	1094.53323	348.02406	-263.86740	1120.50583	340.38952	-295.76931	882.99095	312.61707	-327.12120	897.15820	343.48694	-301.24231	893.01399	377.88719	-131.89860	1437.05002	765.81947	-90.36980	1118.07785	774.10049	-143.19120	1140.79773	843.39165	-74.31875	1139.46754	840.69092	-210.82891	884.93706	847.75833	-194.23168	879.44504	891.55365	-149.72321	874.37149	877.16415	-196.95892	915.27077	390.30842	-160.23457	895.82314	755.47653	-241.63799	410.79475	418.03444	-172.99963	448.79536	372.96543	-181.95877	422.88475	495.45933	-193.48053	446.67583	725.25101	-86.35420	476.40755	718.27103	-176.85684	442.05570	634.04442	-176.43343	174.36771	383.12271	-155.71365	167.89089	446.63116	-99.30092	175.61932	381.17115	-129.00408	166.30224	739.27620	-68.65417	167.34850	687.11052	-145.69227	172.76150	667.27127	-982.53098	1034.04335	486.88480	-981.60454	1040.55969	646.68884	-1143.23547	1039.56810	656.61377	-1107.14073	1042.83005	475.31609	-1051.38100	1381.47461	578.57433	-1188.55545	1415.53329	560.48279	-992.28622	1589.41589	597.99736	-1145.73647	1558.40851	669.74945	-1133.49136	1566.42380	506.86340	-1147.18788	1348.45001	748.29941	-1123.16795	1055.23422	779.19495	-1179.82559	1046.46935	748.82988	-1111.04736	1045.07286	723.83156	-1094.69994	808.95218	801.37650	-1051.43433	821.91406	800.32738	-1048.48495	821.12839	761.18813	-1073.69286	1357.10663	396.76826	-1103.49998	1046.25061	374.21875	-1036.51512	1053.91891	400.84480	-1059.57130	1052.79076	351.38348	-1015.95795	827.56737	388.78704	-1015.14664	831.01547	345.94807	-971.92215	837.23984	359.46003	-1094.84764	877.30141	740.32967	-1041.74622	891.72318	410.04166	-1040.39322	452.94914	657.67921	-1151.48727	486.93359	692.86858	-1122.32224	485.17677	576.35223	-1018.43826	464.94633	517.08344	-1099.63089	479.81174	419.78096	-1124.45969	477.88929	543.38173	-1107.60826	167.02532	677.15515	-1134.54056	162.58072	608.83656	-1188.30956	153.19287	673.71269	-1068.47473	165.86391	459.61926	-1129.16588	168.00035	423.55282	-1128.33656	172.02574	512.83943 
54	30.883	-247.12986	1077.40334	722.08862	-312.55369	1078.00682	523.43678	-146.73641	1104.08432	428.05233	-62.10273	1098.23708	661.05759	-255.22316	1430.26627	621.88972	-161.15196	1509.34601	592.89158	-358.55316	1608.25333	686.47087	-273.92977	1643.45551	544.82624	-190.25291	1634.88937	667.51312	-237.72696	1430.56686	390.18028	-198.68471	1111.30432	303.46519	-169.45454	1094.74335	355.12165	-261.72445	1120.56831	347.21100	-293.37942	883.00163	320.24277	-324.55235	897.14333	351.20068	-298.69589	893.17146	385.63339	-132.05869	1436.73172	772.29080	-91.91913	1117.52274	780.79994	-144.44514	1140.73204	850.18867	-76.08110	1139.03061	848.13736	-214.54054	886.00510	855.25177	-198.03553	880.13878	898.66600	-153.64362	874.58771	884.14948	-194.94232	915.14557	395.71434	-159.65917	895.80963	761.20682	-241.77608	410.81757	420.53085	-172.82335	449.08699	376.10245	-182.32183	422.40944	498.37818	-193.69455	446.52302	728.76480	-86.22874	476.31664	721.61469	-176.91069	442.20127	637.56569	-176.59760	174.62440	384.15314	-155.65421	167.62081	447.78633	-99.39665	175.85213	382.43481	-129.10829	165.91806	740.21118	-68.59243	167.33789	688.23090	-145.70119	172.87449	668.40790	-982.13852	1034.06227	486.81503	-981.33499	1040.65201	646.58867	-1142.23740	1039.11545	655.85724	-1105.84610	1042.67494	474.68208	-1051.66245	1381.18713	578.32333	-1188.50670	1416.11710	560.12650	-991.47820	1588.49579	598.25459	-1145.30685	1558.47794	669.58771	-1132.68822	1566.67313	506.74156	-1147.53487	1348.25836	748.02361	-1123.12843	1055.06973	778.72513	-1179.82735	1046.27548	748.61427	-1110.80894	1044.97063	723.99742	-1094.14986	808.85963	801.11908	-1051.15005	821.91780	800.26680	-1047.78282	821.08017	761.06628	-1073.75038	1356.97372	396.50143	-1103.19420	1046.05446	374.03645	-1036.25473	1053.81142	400.75111	-1059.25377	1052.63039	351.26785	-1015.27161	827.47803	388.73653	-1014.40491	830.90118	345.94448	-971.28983	837.22183	359.52984	-1094.68033	877.07840	740.36880	-1041.22849	891.83937	409.52480	-1040.07317	452.90936	657.56004	-1151.16272	486.97483	692.77740	-1121.86295	485.18375	576.24866	-1017.80640	465.00126	516.99726	-1099.21349	479.82597	419.71390	-1124.13200	477.95200	543.30406	-1107.53380	167.03369	677.14447	-1134.43794	162.60118	608.81443	-1188.17528	153.24924	673.66974	-1068.34221	165.84898	459.60854	-1129.03564	168.05410	423.51257	-1128.28125	172.07850	512.81025 
